<svg width="12" height="12" viewBox="0 0 12 12" fill="none" xmlns="http://www.w3.org/2000/svg">
<path d="M6.00012 0.312126C5.01224 0.312418 4.04145 0.56994 3.18332 1.05935C2.32519 1.54876 1.60928 2.25318 1.10606 3.10329C0.602843 3.9534 0.329657 4.91989 0.313393 5.90764C0.297129 6.89539 0.538347 7.87035 1.0133 8.73656L0.545471 10.3721C0.502485 10.5221 0.500438 10.681 0.539542 10.8321C0.578646 10.9832 0.657475 11.1211 0.767852 11.2315C0.878228 11.3418 1.01613 11.4207 1.16725 11.4598C1.31837 11.4989 1.4772 11.4968 1.62726 11.4538L3.26318 10.9873C4.0235 11.4045 4.86915 11.6423 5.73546 11.6825C6.60177 11.7227 7.46582 11.5643 8.26153 11.2195C9.05725 10.8746 9.76357 10.3523 10.3265 9.69256C10.8894 9.03284 11.294 8.25313 11.5094 7.41305C11.7248 6.57298 11.7452 5.69478 11.5692 4.84559C11.3931 3.9964 11.0252 3.19871 10.4936 2.51351C9.96197 1.82831 9.28072 1.27374 8.50191 0.892196C7.7231 0.510652 6.86737 0.312239 6.00012 0.312126ZM7.75012 7.31213H4.25012C4.13409 7.31213 4.02281 7.26603 3.94076 7.18398C3.85871 7.10194 3.81262 6.99066 3.81262 6.87463C3.81262 6.75859 3.85871 6.64731 3.94076 6.56527C4.02281 6.48322 4.13409 6.43713 4.25012 6.43713H7.75012C7.86615 6.43713 7.97743 6.48322 8.05948 6.56527C8.14152 6.64731 8.18762 6.75859 8.18762 6.87463C8.18762 6.99066 8.14152 7.10194 8.05948 7.18398C7.97743 7.26603 7.86615 7.31213 7.75012 7.31213ZM7.75012 5.56213H4.25012C4.13409 5.56213 4.02281 5.51603 3.94076 5.43399C3.85871 5.35194 3.81262 5.24066 3.81262 5.12463C3.81262 5.00859 3.85871 4.89731 3.94076 4.81527C4.02281 4.73322 4.13409 4.68713 4.25012 4.68713H7.75012C7.86615 4.68713 7.97743 4.73322 8.05948 4.81527C8.14152 4.89731 8.18762 5.00859 8.18762 5.12463C8.18762 5.24066 8.14152 5.35194 8.05948 5.43399C7.97743 5.51603 7.86615 5.56213 7.75012 5.56213Z" fill="black"/>
</svg>
